<svg xmlns="http://www.w3.org/2000/svg" xmlns:xlink="http://www.w3.org/1999/xlink" width="165" zoomAndPan="magnify" viewBox="0 0 123.75 50.999998" height="68" preserveAspectRatio="xMidYMid meet" version="1.0"><defs><g/><clipPath id="d26daa846c"><path d="M 46 2.332031 L 78.425781 2.332031 L 78.425781 22.582031 L 46 22.582031 Z M 46 2.332031 " clip-rule="nonzero"/></clipPath><clipPath id="60d4524811"><path d="M 45.425781 12 L 48 12 L 48 15 L 45.425781 15 Z M 45.425781 12 " clip-rule="nonzero"/></clipPath></defs><g fill="#ffffff" fill-opacity="1"><g transform="translate(21.690629, 30.097901)"><g><path d="M 2.953125 0.171875 C 2.398438 0.171875 1.972656 0.0195312 1.671875 -0.28125 C 1.367188 -0.582031 1.21875 -1.019531 1.21875 -1.59375 L 1.21875 -11.59375 C 1.21875 -12.15625 1.367188 -12.585938 1.671875 -12.890625 C 1.972656 -13.191406 2.40625 -13.34375 2.96875 -13.34375 L 7.625 -13.34375 C 9.144531 -13.34375 10.316406 -12.953125 11.140625 -12.171875 C 11.972656 -11.398438 12.390625 -10.332031 12.390625 -8.96875 C 12.390625 -7.613281 11.972656 -6.546875 11.140625 -5.765625 C 10.316406 -4.992188 9.144531 -4.609375 7.625 -4.609375 L 4.703125 -4.609375 L 4.703125 -1.59375 C 4.703125 -1.019531 4.550781 -0.582031 4.25 -0.28125 C 3.957031 0.0195312 3.523438 0.171875 2.953125 0.171875 Z M 4.703125 -7.265625 L 7.03125 -7.265625 C 8.394531 -7.265625 9.078125 -7.832031 9.078125 -8.96875 C 9.078125 -10.113281 8.394531 -10.6875 7.03125 -10.6875 L 4.703125 -10.6875 Z M 4.703125 -7.265625 "/></g></g></g><g fill="#ffffff" fill-opacity="1"><g transform="translate(34.492356, 30.097901)"><g><path d="M 4.53125 0.203125 C 3.300781 0.203125 2.398438 -0.117188 1.828125 -0.765625 C 1.265625 -1.421875 0.984375 -2.40625 0.984375 -3.71875 L 0.984375 -11.8125 C 0.984375 -12.945312 1.539062 -13.515625 2.65625 -13.515625 C 3.195312 -13.515625 3.613281 -13.367188 3.90625 -13.078125 C 4.207031 -12.796875 4.359375 -12.375 4.359375 -11.8125 L 4.359375 -3.828125 C 4.359375 -3.359375 4.445312 -3.015625 4.625 -2.796875 C 4.8125 -2.585938 5.050781 -2.484375 5.34375 -2.484375 C 5.425781 -2.484375 5.515625 -2.488281 5.609375 -2.5 C 5.703125 -2.519531 5.804688 -2.539062 5.921875 -2.5625 C 6.148438 -2.5625 6.316406 -2.476562 6.421875 -2.3125 C 6.523438 -2.144531 6.578125 -1.8125 6.578125 -1.3125 C 6.578125 -0.863281 6.488281 -0.53125 6.3125 -0.3125 C 6.132812 -0.09375 5.859375 0.046875 5.484375 0.109375 C 5.390625 0.140625 5.242188 0.160156 5.046875 0.171875 C 4.859375 0.191406 4.6875 0.203125 4.53125 0.203125 Z M 4.53125 0.203125 "/></g></g></g><g fill="#ffffff" fill-opacity="1"><g transform="translate(41.082596, 30.097901)"><g><path d="M 4.21875 0.203125 C 3.5 0.203125 2.863281 0.0703125 2.3125 -0.1875 C 1.769531 -0.457031 1.34375 -0.820312 1.03125 -1.28125 C 0.71875 -1.738281 0.5625 -2.265625 0.5625 -2.859375 C 0.5625 -3.523438 0.738281 -4.054688 1.09375 -4.453125 C 1.445312 -4.859375 2.015625 -5.144531 2.796875 -5.3125 C 3.585938 -5.476562 4.628906 -5.5625 5.921875 -5.5625 L 6.640625 -5.5625 L 6.640625 -5.828125 C 6.640625 -6.285156 6.523438 -6.609375 6.296875 -6.796875 C 6.066406 -6.984375 5.664062 -7.078125 5.09375 -7.078125 C 4.78125 -7.078125 4.4375 -7.039062 4.0625 -6.96875 C 3.6875 -6.90625 3.265625 -6.785156 2.796875 -6.609375 C 2.378906 -6.453125 2.03125 -6.457031 1.75 -6.625 C 1.476562 -6.789062 1.300781 -7.023438 1.21875 -7.328125 C 1.132812 -7.640625 1.164062 -7.953125 1.3125 -8.265625 C 1.457031 -8.578125 1.738281 -8.804688 2.15625 -8.953125 C 2.757812 -9.171875 3.316406 -9.320312 3.828125 -9.40625 C 4.347656 -9.488281 4.820312 -9.53125 5.25 -9.53125 C 6.800781 -9.53125 7.953125 -9.191406 8.703125 -8.515625 C 9.453125 -7.847656 9.828125 -6.796875 9.828125 -5.359375 L 9.828125 -1.53125 C 9.828125 -0.394531 9.3125 0.171875 8.28125 0.171875 C 7.289062 0.171875 6.765625 -0.332031 6.703125 -1.34375 C 6.523438 -0.863281 6.222656 -0.484375 5.796875 -0.203125 C 5.367188 0.0664062 4.84375 0.203125 4.21875 0.203125 Z M 4.984375 -1.984375 C 5.453125 -1.984375 5.84375 -2.132812 6.15625 -2.4375 C 6.476562 -2.738281 6.640625 -3.140625 6.640625 -3.640625 L 6.640625 -3.984375 L 5.921875 -3.984375 C 5.179688 -3.984375 4.632812 -3.898438 4.28125 -3.734375 C 3.9375 -3.578125 3.765625 -3.328125 3.765625 -2.984375 C 3.765625 -2.703125 3.867188 -2.460938 4.078125 -2.265625 C 4.285156 -2.078125 4.585938 -1.984375 4.984375 -1.984375 Z M 4.984375 -1.984375 "/></g></g></g><g fill="#ffffff" fill-opacity="1"><g transform="translate(51.83908, 30.097901)"><g><path d="M 5.734375 0.203125 C 4.691406 0.203125 3.78125 0.0078125 3 -0.375 C 2.226562 -0.769531 1.625 -1.332031 1.1875 -2.0625 C 0.757812 -2.789062 0.546875 -3.660156 0.546875 -4.671875 C 0.546875 -5.679688 0.757812 -6.550781 1.1875 -7.28125 C 1.625 -8.007812 2.226562 -8.566406 3 -8.953125 C 3.78125 -9.335938 4.691406 -9.53125 5.734375 -9.53125 C 6.097656 -9.53125 6.484375 -9.492188 6.890625 -9.421875 C 7.296875 -9.347656 7.710938 -9.21875 8.140625 -9.03125 C 8.429688 -8.914062 8.640625 -8.738281 8.765625 -8.5 C 8.890625 -8.269531 8.941406 -8.019531 8.921875 -7.75 C 8.910156 -7.488281 8.835938 -7.25 8.703125 -7.03125 C 8.566406 -6.820312 8.378906 -6.679688 8.140625 -6.609375 C 7.910156 -6.535156 7.648438 -6.566406 7.359375 -6.703125 C 6.941406 -6.890625 6.519531 -6.984375 6.09375 -6.984375 C 5.425781 -6.984375 4.910156 -6.78125 4.546875 -6.375 C 4.179688 -5.976562 4 -5.410156 4 -4.671875 C 4 -3.929688 4.179688 -3.351562 4.546875 -2.9375 C 4.910156 -2.53125 5.425781 -2.328125 6.09375 -2.328125 C 6.300781 -2.328125 6.507812 -2.347656 6.71875 -2.390625 C 6.9375 -2.441406 7.148438 -2.515625 7.359375 -2.609375 C 7.671875 -2.753906 7.9375 -2.785156 8.15625 -2.703125 C 8.375 -2.617188 8.546875 -2.472656 8.671875 -2.265625 C 8.804688 -2.054688 8.882812 -1.816406 8.90625 -1.546875 C 8.925781 -1.285156 8.875 -1.035156 8.75 -0.796875 C 8.625 -0.566406 8.410156 -0.394531 8.109375 -0.28125 C 7.679688 -0.09375 7.269531 0.03125 6.875 0.09375 C 6.476562 0.164062 6.097656 0.203125 5.734375 0.203125 Z M 5.734375 0.203125 "/></g></g></g><g fill="#ffffff" fill-opacity="1"><g transform="translate(61.004813, 30.097901)"><g><path d="M 6.0625 0.203125 C 4.925781 0.203125 3.941406 0.00390625 3.109375 -0.390625 C 2.285156 -0.785156 1.648438 -1.347656 1.203125 -2.078125 C 0.765625 -2.816406 0.546875 -3.679688 0.546875 -4.671875 C 0.546875 -5.617188 0.753906 -6.457031 1.171875 -7.1875 C 1.597656 -7.925781 2.179688 -8.5 2.921875 -8.90625 C 3.660156 -9.320312 4.503906 -9.53125 5.453125 -9.53125 C 6.390625 -9.53125 7.203125 -9.332031 7.890625 -8.9375 C 8.578125 -8.539062 9.101562 -7.976562 9.46875 -7.25 C 9.84375 -6.53125 10.03125 -5.6875 10.03125 -4.71875 C 10.03125 -4.226562 9.742188 -3.984375 9.171875 -3.984375 L 3.765625 -3.984375 C 3.878906 -3.367188 4.128906 -2.925781 4.515625 -2.65625 C 4.910156 -2.394531 5.457031 -2.265625 6.15625 -2.265625 C 6.414062 -2.265625 6.726562 -2.296875 7.09375 -2.359375 C 7.46875 -2.429688 7.816406 -2.535156 8.140625 -2.671875 C 8.546875 -2.816406 8.882812 -2.816406 9.15625 -2.671875 C 9.4375 -2.535156 9.625 -2.316406 9.71875 -2.015625 C 9.8125 -1.722656 9.796875 -1.421875 9.671875 -1.109375 C 9.554688 -0.796875 9.320312 -0.554688 8.96875 -0.390625 C 8.53125 -0.179688 8.0625 -0.03125 7.5625 0.0625 C 7.0625 0.15625 6.5625 0.203125 6.0625 0.203125 Z M 5.609375 -7.34375 C 5.097656 -7.34375 4.679688 -7.191406 4.359375 -6.890625 C 4.035156 -6.585938 3.832031 -6.144531 3.75 -5.5625 L 7.265625 -5.5625 C 7.234375 -6.15625 7.070312 -6.597656 6.78125 -6.890625 C 6.5 -7.191406 6.109375 -7.34375 5.609375 -7.34375 Z M 5.609375 -7.34375 "/></g></g></g><g fill="#ffffff" fill-opacity="1"><g transform="translate(71.515112, 30.097901)"><g><path d="M 2.6875 0.171875 C 2.144531 0.171875 1.726562 0.0234375 1.4375 -0.265625 C 1.15625 -0.554688 1.015625 -0.976562 1.015625 -1.53125 L 1.015625 -7.796875 C 1.015625 -8.921875 1.566406 -9.484375 2.671875 -9.484375 C 3.671875 -9.484375 4.210938 -9.003906 4.296875 -8.046875 C 4.578125 -8.503906 4.957031 -8.863281 5.4375 -9.125 C 5.925781 -9.394531 6.492188 -9.53125 7.140625 -9.53125 C 7.773438 -9.53125 8.320312 -9.390625 8.78125 -9.109375 C 9.238281 -8.828125 9.585938 -8.398438 9.828125 -7.828125 C 10.140625 -8.367188 10.566406 -8.785156 11.109375 -9.078125 C 11.660156 -9.378906 12.265625 -9.53125 12.921875 -9.53125 C 14.003906 -9.53125 14.804688 -9.203125 15.328125 -8.546875 C 15.847656 -7.898438 16.109375 -6.890625 16.109375 -5.515625 L 16.109375 -1.53125 C 16.109375 -0.976562 15.957031 -0.554688 15.65625 -0.265625 C 15.363281 0.0234375 14.945312 0.171875 14.40625 0.171875 C 13.875 0.171875 13.460938 0.0234375 13.171875 -0.265625 C 12.890625 -0.554688 12.75 -0.976562 12.75 -1.53125 L 12.75 -5.421875 C 12.75 -5.960938 12.664062 -6.351562 12.5 -6.59375 C 12.332031 -6.832031 12.0625 -6.953125 11.6875 -6.953125 C 11.21875 -6.953125 10.859375 -6.785156 10.609375 -6.453125 C 10.367188 -6.128906 10.25 -5.664062 10.25 -5.0625 L 10.25 -1.53125 C 10.25 -0.976562 10.101562 -0.554688 9.8125 -0.265625 C 9.519531 0.0234375 9.101562 0.171875 8.5625 0.171875 C 8.019531 0.171875 7.601562 0.0234375 7.3125 -0.265625 C 7.019531 -0.554688 6.875 -0.976562 6.875 -1.53125 L 6.875 -5.421875 C 6.875 -5.960938 6.789062 -6.351562 6.625 -6.59375 C 6.457031 -6.832031 6.1875 -6.953125 5.8125 -6.953125 C 5.351562 -6.953125 5 -6.785156 4.75 -6.453125 C 4.507812 -6.128906 4.390625 -5.664062 4.390625 -5.0625 L 4.390625 -1.53125 C 4.390625 -0.394531 3.820312 0.171875 2.6875 0.171875 Z M 2.6875 0.171875 "/></g></g></g><g fill="#ffffff" fill-opacity="1"><g transform="translate(88.596712, 30.097901)"><g><path d="M 6.0625 0.203125 C 4.925781 0.203125 3.941406 0.00390625 3.109375 -0.390625 C 2.285156 -0.785156 1.648438 -1.347656 1.203125 -2.078125 C 0.765625 -2.816406 0.546875 -3.679688 0.546875 -4.671875 C 0.546875 -5.617188 0.753906 -6.457031 1.171875 -7.1875 C 1.597656 -7.925781 2.179688 -8.5 2.921875 -8.90625 C 3.660156 -9.320312 4.503906 -9.53125 5.453125 -9.53125 C 6.390625 -9.53125 7.203125 -9.332031 7.890625 -8.9375 C 8.578125 -8.539062 9.101562 -7.976562 9.46875 -7.25 C 9.84375 -6.53125 10.03125 -5.6875 10.03125 -4.71875 C 10.03125 -4.226562 9.742188 -3.984375 9.171875 -3.984375 L 3.765625 -3.984375 C 3.878906 -3.367188 4.128906 -2.925781 4.515625 -2.65625 C 4.910156 -2.394531 5.457031 -2.265625 6.15625 -2.265625 C 6.414062 -2.265625 6.726562 -2.296875 7.09375 -2.359375 C 7.46875 -2.429688 7.816406 -2.535156 8.140625 -2.671875 C 8.546875 -2.816406 8.882812 -2.816406 9.15625 -2.671875 C 9.4375 -2.535156 9.625 -2.316406 9.71875 -2.015625 C 9.8125 -1.722656 9.796875 -1.421875 9.671875 -1.109375 C 9.554688 -0.796875 9.320312 -0.554688 8.96875 -0.390625 C 8.53125 -0.179688 8.0625 -0.03125 7.5625 0.0625 C 7.0625 0.15625 6.5625 0.203125 6.0625 0.203125 Z M 5.609375 -7.34375 C 5.097656 -7.34375 4.679688 -7.191406 4.359375 -6.890625 C 4.035156 -6.585938 3.832031 -6.144531 3.75 -5.5625 L 7.265625 -5.5625 C 7.234375 -6.15625 7.070312 -6.597656 6.78125 -6.890625 C 6.5 -7.191406 6.109375 -7.34375 5.609375 -7.34375 Z M 5.609375 -7.34375 "/></g></g></g><g fill="#ffffff" fill-opacity="1"><g transform="translate(99.107011, 30.097901)"><g><path d="M 5.875 0.203125 C 4.457031 0.203125 3.40625 -0.125 2.71875 -0.78125 C 2.039062 -1.4375 1.703125 -2.425781 1.703125 -3.75 L 1.703125 -6.84375 L 1.0625 -6.84375 C 0.21875 -6.84375 -0.203125 -7.257812 -0.203125 -8.09375 C -0.203125 -8.90625 0.21875 -9.3125 1.0625 -9.3125 L 1.703125 -9.3125 L 1.703125 -10.484375 C 1.703125 -11.046875 1.847656 -11.472656 2.140625 -11.765625 C 2.429688 -12.054688 2.847656 -12.203125 3.390625 -12.203125 C 4.515625 -12.203125 5.078125 -11.628906 5.078125 -10.484375 L 5.078125 -9.3125 L 6.625 -9.3125 C 7.488281 -9.3125 7.921875 -8.90625 7.921875 -8.09375 C 7.921875 -7.257812 7.488281 -6.84375 6.625 -6.84375 L 5.078125 -6.84375 L 5.078125 -3.859375 C 5.078125 -2.953125 5.535156 -2.5 6.453125 -2.5 C 6.628906 -2.5 6.800781 -2.515625 6.96875 -2.546875 C 7.132812 -2.585938 7.285156 -2.609375 7.421875 -2.609375 C 7.617188 -2.617188 7.78125 -2.554688 7.90625 -2.421875 C 8.039062 -2.296875 8.109375 -2 8.109375 -1.53125 C 8.109375 -1.15625 8.050781 -0.835938 7.9375 -0.578125 C 7.820312 -0.316406 7.617188 -0.128906 7.328125 -0.015625 C 7.148438 0.046875 6.910156 0.0976562 6.609375 0.140625 C 6.304688 0.179688 6.0625 0.203125 5.875 0.203125 Z M 5.875 0.203125 "/></g></g></g><g fill="#ffffff" fill-opacity="1"><g transform="translate(26.237504, 45.8479)"><g><path d="M 7.125 0.203125 C 5.175781 0.203125 3.6875 -0.285156 2.65625 -1.265625 C 1.632812 -2.253906 1.125 -3.726562 1.125 -5.6875 L 1.125 -11.765625 C 1.125 -12.328125 1.273438 -12.757812 1.578125 -13.0625 C 1.878906 -13.363281 2.304688 -13.515625 2.859375 -13.515625 C 3.410156 -13.515625 3.835938 -13.363281 4.140625 -13.0625 C 4.453125 -12.757812 4.609375 -12.328125 4.609375 -11.765625 L 4.609375 -5.640625 C 4.609375 -4.671875 4.820312 -3.9375 5.25 -3.4375 C 5.675781 -2.945312 6.300781 -2.703125 7.125 -2.703125 C 7.925781 -2.703125 8.539062 -2.945312 8.96875 -3.4375 C 9.40625 -3.9375 9.625 -4.671875 9.625 -5.640625 L 9.625 -11.765625 C 9.625 -12.328125 9.769531 -12.757812 10.0625 -13.0625 C 10.363281 -13.363281 10.789062 -13.515625 11.34375 -13.515625 C 11.894531 -13.515625 12.316406 -13.363281 12.609375 -13.0625 C 12.898438 -12.757812 13.046875 -12.328125 13.046875 -11.765625 L 13.046875 -5.6875 C 13.046875 -3.726562 12.539062 -2.253906 11.53125 -1.265625 C 10.53125 -0.285156 9.0625 0.203125 7.125 0.203125 Z M 7.125 0.203125 "/></g></g></g><g fill="#ffffff" fill-opacity="1"><g transform="translate(40.402725, 45.8479)"><g><path d="M 2.65625 3.578125 C 1.539062 3.578125 0.984375 3.007812 0.984375 1.875 L 0.984375 -7.796875 C 0.984375 -8.921875 1.53125 -9.484375 2.625 -9.484375 C 3.625 -9.484375 4.175781 -9.019531 4.28125 -8.09375 C 4.53125 -8.53125 4.910156 -8.878906 5.421875 -9.140625 C 5.929688 -9.398438 6.5 -9.53125 7.125 -9.53125 C 7.914062 -9.53125 8.617188 -9.332031 9.234375 -8.9375 C 9.847656 -8.539062 10.328125 -7.976562 10.671875 -7.25 C 11.015625 -6.53125 11.1875 -5.664062 11.1875 -4.65625 C 11.1875 -3.65625 11.015625 -2.789062 10.671875 -2.0625 C 10.335938 -1.332031 9.863281 -0.769531 9.25 -0.375 C 8.632812 0.0078125 7.925781 0.203125 7.125 0.203125 C 6.539062 0.203125 6 0.0820312 5.5 -0.15625 C 5 -0.394531 4.617188 -0.71875 4.359375 -1.125 L 4.359375 1.875 C 4.359375 2.425781 4.207031 2.847656 3.90625 3.140625 C 3.613281 3.429688 3.195312 3.578125 2.65625 3.578125 Z M 6.0625 -2.265625 C 6.5625 -2.265625 6.972656 -2.453125 7.296875 -2.828125 C 7.628906 -3.210938 7.796875 -3.820312 7.796875 -4.65625 C 7.796875 -5.5 7.628906 -6.109375 7.296875 -6.484375 C 6.972656 -6.859375 6.5625 -7.046875 6.0625 -7.046875 C 5.539062 -7.046875 5.113281 -6.859375 4.78125 -6.484375 C 4.457031 -6.109375 4.296875 -5.5 4.296875 -4.65625 C 4.296875 -3.820312 4.457031 -3.210938 4.78125 -2.828125 C 5.113281 -2.453125 5.539062 -2.265625 6.0625 -2.265625 Z M 6.0625 -2.265625 "/></g></g></g><g fill="#ffffff" fill-opacity="1"><g transform="translate(52.143951, 45.8479)"><g><path d="M 4.625 0.203125 C 3.820312 0.203125 3.113281 0.0078125 2.5 -0.375 C 1.894531 -0.769531 1.414062 -1.332031 1.0625 -2.0625 C 0.71875 -2.789062 0.546875 -3.65625 0.546875 -4.65625 C 0.546875 -5.664062 0.71875 -6.53125 1.0625 -7.25 C 1.414062 -7.976562 1.894531 -8.539062 2.5 -8.9375 C 3.113281 -9.332031 3.820312 -9.53125 4.625 -9.53125 C 5.21875 -9.53125 5.757812 -9.40625 6.25 -9.15625 C 6.75 -8.90625 7.132812 -8.585938 7.40625 -8.203125 L 7.40625 -11.8125 C 7.40625 -12.945312 7.96875 -13.515625 9.09375 -13.515625 C 9.632812 -13.515625 10.050781 -13.367188 10.34375 -13.078125 C 10.632812 -12.796875 10.78125 -12.375 10.78125 -11.8125 L 10.78125 -1.53125 C 10.78125 -0.394531 10.222656 0.171875 9.109375 0.171875 C 8.109375 0.171875 7.5625 -0.300781 7.46875 -1.25 C 7.207031 -0.8125 6.820312 -0.457031 6.3125 -0.1875 C 5.800781 0.0703125 5.238281 0.203125 4.625 0.203125 Z M 5.703125 -2.265625 C 6.203125 -2.265625 6.613281 -2.453125 6.9375 -2.828125 C 7.269531 -3.210938 7.4375 -3.820312 7.4375 -4.65625 C 7.4375 -5.5 7.269531 -6.109375 6.9375 -6.484375 C 6.613281 -6.859375 6.203125 -7.046875 5.703125 -7.046875 C 5.179688 -7.046875 4.753906 -6.859375 4.421875 -6.484375 C 4.097656 -6.109375 3.9375 -5.5 3.9375 -4.65625 C 3.9375 -3.820312 4.097656 -3.210938 4.421875 -2.828125 C 4.753906 -2.453125 5.179688 -2.265625 5.703125 -2.265625 Z M 5.703125 -2.265625 "/></g></g></g><g fill="#ffffff" fill-opacity="1"><g transform="translate(63.885177, 45.8479)"><g><path d="M 4.21875 0.203125 C 3.5 0.203125 2.863281 0.0703125 2.3125 -0.1875 C 1.769531 -0.457031 1.34375 -0.820312 1.03125 -1.28125 C 0.71875 -1.738281 0.5625 -2.265625 0.5625 -2.859375 C 0.5625 -3.523438 0.738281 -4.054688 1.09375 -4.453125 C 1.445312 -4.859375 2.015625 -5.144531 2.796875 -5.3125 C 3.585938 -5.476562 4.628906 -5.5625 5.921875 -5.5625 L 6.640625 -5.5625 L 6.640625 -5.828125 C 6.640625 -6.285156 6.523438 -6.609375 6.296875 -6.796875 C 6.066406 -6.984375 5.664062 -7.078125 5.09375 -7.078125 C 4.78125 -7.078125 4.4375 -7.039062 4.0625 -6.96875 C 3.6875 -6.90625 3.265625 -6.785156 2.796875 -6.609375 C 2.378906 -6.453125 2.03125 -6.457031 1.75 -6.625 C 1.476562 -6.789062 1.300781 -7.023438 1.21875 -7.328125 C 1.132812 -7.640625 1.164062 -7.953125 1.3125 -8.265625 C 1.457031 -8.578125 1.738281 -8.804688 2.15625 -8.953125 C 2.757812 -9.171875 3.316406 -9.320312 3.828125 -9.40625 C 4.347656 -9.488281 4.820312 -9.53125 5.25 -9.53125 C 6.800781 -9.53125 7.953125 -9.191406 8.703125 -8.515625 C 9.453125 -7.847656 9.828125 -6.796875 9.828125 -5.359375 L 9.828125 -1.53125 C 9.828125 -0.394531 9.3125 0.171875 8.28125 0.171875 C 7.289062 0.171875 6.765625 -0.332031 6.703125 -1.34375 C 6.523438 -0.863281 6.222656 -0.484375 5.796875 -0.203125 C 5.367188 0.0664062 4.84375 0.203125 4.21875 0.203125 Z M 4.984375 -1.984375 C 5.453125 -1.984375 5.84375 -2.132812 6.15625 -2.4375 C 6.476562 -2.738281 6.640625 -3.140625 6.640625 -3.640625 L 6.640625 -3.984375 L 5.921875 -3.984375 C 5.179688 -3.984375 4.632812 -3.898438 4.28125 -3.734375 C 3.9375 -3.578125 3.765625 -3.328125 3.765625 -2.984375 C 3.765625 -2.703125 3.867188 -2.460938 4.078125 -2.265625 C 4.285156 -2.078125 4.585938 -1.984375 4.984375 -1.984375 Z M 4.984375 -1.984375 "/></g></g></g><g fill="#ffffff" fill-opacity="1"><g transform="translate(74.641661, 45.8479)"><g><path d="M 5.875 0.203125 C 4.457031 0.203125 3.40625 -0.125 2.71875 -0.78125 C 2.039062 -1.4375 1.703125 -2.425781 1.703125 -3.75 L 1.703125 -6.84375 L 1.0625 -6.84375 C 0.21875 -6.84375 -0.203125 -7.257812 -0.203125 -8.09375 C -0.203125 -8.90625 0.21875 -9.3125 1.0625 -9.3125 L 1.703125 -9.3125 L 1.703125 -10.484375 C 1.703125 -11.046875 1.847656 -11.472656 2.140625 -11.765625 C 2.429688 -12.054688 2.847656 -12.203125 3.390625 -12.203125 C 4.515625 -12.203125 5.078125 -11.628906 5.078125 -10.484375 L 5.078125 -9.3125 L 6.625 -9.3125 C 7.488281 -9.3125 7.921875 -8.90625 7.921875 -8.09375 C 7.921875 -7.257812 7.488281 -6.84375 6.625 -6.84375 L 5.078125 -6.84375 L 5.078125 -3.859375 C 5.078125 -2.953125 5.535156 -2.5 6.453125 -2.5 C 6.628906 -2.5 6.800781 -2.515625 6.96875 -2.546875 C 7.132812 -2.585938 7.285156 -2.609375 7.421875 -2.609375 C 7.617188 -2.617188 7.78125 -2.554688 7.90625 -2.421875 C 8.039062 -2.296875 8.109375 -2 8.109375 -1.53125 C 8.109375 -1.15625 8.050781 -0.835938 7.9375 -0.578125 C 7.820312 -0.316406 7.617188 -0.128906 7.328125 -0.015625 C 7.148438 0.046875 6.910156 0.0976562 6.609375 0.140625 C 6.304688 0.179688 6.0625 0.203125 5.875 0.203125 Z M 5.875 0.203125 "/></g></g></g><g fill="#ffffff" fill-opacity="1"><g transform="translate(82.709024, 45.8479)"><g><path d="M 6.0625 0.203125 C 4.925781 0.203125 3.941406 0.00390625 3.109375 -0.390625 C 2.285156 -0.785156 1.648438 -1.347656 1.203125 -2.078125 C 0.765625 -2.816406 0.546875 -3.679688 0.546875 -4.671875 C 0.546875 -5.617188 0.753906 -6.457031 1.171875 -7.1875 C 1.597656 -7.925781 2.179688 -8.5 2.921875 -8.90625 C 3.660156 -9.320312 4.503906 -9.53125 5.453125 -9.53125 C 6.390625 -9.53125 7.203125 -9.332031 7.890625 -8.9375 C 8.578125 -8.539062 9.101562 -7.976562 9.46875 -7.25 C 9.84375 -6.53125 10.03125 -5.6875 10.03125 -4.71875 C 10.03125 -4.226562 9.742188 -3.984375 9.171875 -3.984375 L 3.765625 -3.984375 C 3.878906 -3.367188 4.128906 -2.925781 4.515625 -2.65625 C 4.910156 -2.394531 5.457031 -2.265625 6.15625 -2.265625 C 6.414062 -2.265625 6.726562 -2.296875 7.09375 -2.359375 C 7.46875 -2.429688 7.816406 -2.535156 8.140625 -2.671875 C 8.546875 -2.816406 8.882812 -2.816406 9.15625 -2.671875 C 9.4375 -2.535156 9.625 -2.316406 9.71875 -2.015625 C 9.8125 -1.722656 9.796875 -1.421875 9.671875 -1.109375 C 9.554688 -0.796875 9.320312 -0.554688 8.96875 -0.390625 C 8.53125 -0.179688 8.0625 -0.03125 7.5625 0.0625 C 7.0625 0.15625 6.5625 0.203125 6.0625 0.203125 Z M 5.609375 -7.34375 C 5.097656 -7.34375 4.679688 -7.191406 4.359375 -6.890625 C 4.035156 -6.585938 3.832031 -6.144531 3.75 -5.5625 L 7.265625 -5.5625 C 7.234375 -6.15625 7.070312 -6.597656 6.78125 -6.890625 C 6.5 -7.191406 6.109375 -7.34375 5.609375 -7.34375 Z M 5.609375 -7.34375 "/></g></g></g><g fill="#ffffff" fill-opacity="1"><g transform="translate(93.219323, 45.8479)"><g><path d="M 4.703125 0.203125 C 4.128906 0.203125 3.554688 0.15625 2.984375 0.0625 C 2.421875 -0.0195312 1.90625 -0.160156 1.4375 -0.359375 C 1.050781 -0.515625 0.796875 -0.734375 0.671875 -1.015625 C 0.554688 -1.304688 0.546875 -1.597656 0.640625 -1.890625 C 0.734375 -2.179688 0.90625 -2.398438 1.15625 -2.546875 C 1.40625 -2.703125 1.707031 -2.71875 2.0625 -2.59375 C 2.582031 -2.40625 3.054688 -2.269531 3.484375 -2.1875 C 3.910156 -2.101562 4.320312 -2.0625 4.71875 -2.0625 C 5.1875 -2.0625 5.519531 -2.128906 5.71875 -2.265625 C 5.914062 -2.398438 6.015625 -2.570312 6.015625 -2.78125 C 6.015625 -2.96875 5.945312 -3.109375 5.8125 -3.203125 C 5.6875 -3.304688 5.503906 -3.378906 5.265625 -3.421875 L 3.15625 -3.765625 C 2.375 -3.890625 1.769531 -4.171875 1.34375 -4.609375 C 0.914062 -5.054688 0.703125 -5.632812 0.703125 -6.34375 C 0.703125 -7 0.882812 -7.5625 1.25 -8.03125 C 1.613281 -8.507812 2.125 -8.878906 2.78125 -9.140625 C 3.4375 -9.398438 4.1875 -9.53125 5.03125 -9.53125 C 5.601562 -9.53125 6.125 -9.484375 6.59375 -9.390625 C 7.0625 -9.304688 7.515625 -9.160156 7.953125 -8.953125 C 8.296875 -8.816406 8.515625 -8.601562 8.609375 -8.3125 C 8.703125 -8.019531 8.691406 -7.734375 8.578125 -7.453125 C 8.472656 -7.171875 8.289062 -6.957031 8.03125 -6.8125 C 7.78125 -6.664062 7.472656 -6.660156 7.109375 -6.796875 C 6.691406 -6.960938 6.320312 -7.082031 6 -7.15625 C 5.675781 -7.226562 5.375 -7.265625 5.09375 -7.265625 C 4.570312 -7.265625 4.203125 -7.191406 3.984375 -7.046875 C 3.773438 -6.910156 3.671875 -6.738281 3.671875 -6.53125 C 3.671875 -6.1875 3.90625 -5.976562 4.375 -5.90625 L 6.484375 -5.546875 C 7.285156 -5.421875 7.90625 -5.144531 8.34375 -4.71875 C 8.78125 -4.300781 9 -3.734375 9 -3.015625 C 9 -1.992188 8.601562 -1.203125 7.8125 -0.640625 C 7.03125 -0.078125 5.992188 0.203125 4.703125 0.203125 Z M 4.703125 0.203125 "/></g></g></g><g clip-path="url(#d26daa846c)"><path fill="#ffffff" d="M 72.394531 9.894531 C 72.382812 9.859375 72.375 9.824219 72.367188 9.785156 C 72.382812 9.777344 72.398438 9.769531 72.410156 9.757812 C 72.402344 9.804688 72.398438 9.851562 72.394531 9.894531 Z M 60.992188 21.679688 C 60.125 21.765625 59.234375 21.78125 58.382812 21.644531 C 60.1875 21.574219 61.984375 21.4375 63.765625 21.109375 C 63.828125 21.09375 63.886719 21.082031 63.941406 21.066406 C 63.949219 21.101562 63.964844 21.128906 63.996094 21.152344 C 63.007812 21.390625 62.007812 21.578125 60.992188 21.679688 Z M 73.21875 16.996094 C 73.214844 16.996094 73.210938 17 73.203125 17.007812 C 72.949219 17.246094 72.671875 17.472656 72.375 17.6875 C 72.316406 17.710938 72.265625 17.726562 72.21875 17.742188 C 72.0625 17.800781 71.898438 17.847656 71.730469 17.894531 C 71.882812 17.789062 72.03125 17.683594 72.175781 17.578125 C 72.484375 17.351562 72.882812 17.085938 73.179688 16.777344 C 73.191406 16.851562 73.203125 16.921875 73.21875 16.996094 Z M 73.273438 17.28125 C 73.203125 17.332031 73.125 17.378906 73.035156 17.421875 C 73.113281 17.335938 73.183594 17.25 73.253906 17.164062 C 73.257812 17.203125 73.265625 17.242188 73.273438 17.28125 Z M 69.003906 19.175781 C 69.386719 19.066406 69.761719 18.9375 70.132812 18.773438 C 70.164062 18.828125 70.222656 18.867188 70.285156 18.886719 C 69.574219 19.226562 68.855469 19.523438 68.175781 19.792969 C 68.089844 19.824219 68.011719 19.855469 67.933594 19.882812 C 68.335938 19.699219 68.722656 19.484375 68.992188 19.203125 C 68.996094 19.195312 69 19.183594 69.003906 19.175781 Z M 56.207031 20.734375 C 56.175781 20.710938 56.144531 20.675781 56.117188 20.636719 C 56.648438 20.890625 57.328125 21.003906 57.792969 21.039062 C 59.085938 21.148438 60.394531 20.828125 61.636719 20.460938 C 62.128906 20.398438 62.628906 20.328125 63.121094 20.246094 C 64.824219 19.957031 66.863281 19.570312 68.277344 18.570312 C 68.398438 18.476562 68.273438 18.308594 68.136719 18.367188 C 67.3125 18.726562 66.53125 19.09375 65.664062 19.351562 C 64.742188 19.625 63.789062 19.804688 62.839844 19.964844 C 61.292969 20.214844 59.730469 20.425781 58.183594 20.703125 C 57.6875 20.683594 57.195312 20.605469 56.734375 20.445312 C 56.222656 20.269531 55.964844 19.875 55.539062 19.621094 C 56.167969 19.871094 57.027344 19.847656 57.609375 19.769531 C 58.820312 19.605469 59.984375 18.976562 61.226562 19.179688 C 61.238281 19.183594 61.242188 19.164062 61.230469 19.160156 C 60.308594 18.90625 59.320312 19.136719 58.378906 19.289062 C 57.800781 19.386719 57.21875 19.476562 56.632812 19.4375 C 55.960938 19.394531 55.613281 18.996094 55.046875 18.796875 C 55.007812 18.785156 54.972656 18.785156 54.941406 18.792969 C 54.824219 18.503906 54.707031 18.214844 54.597656 17.921875 C 55.300781 18.4375 56.472656 18.582031 57.328125 18.640625 C 58.488281 18.722656 59.675781 18.453125 60.714844 17.945312 C 60.730469 17.941406 60.71875 17.921875 60.703125 17.925781 C 59.6875 18.316406 58.648438 18.433594 57.5625 18.398438 C 57.027344 18.386719 56.5 18.292969 55.992188 18.164062 C 55.472656 18.03125 55.015625 17.753906 54.5 17.636719 C 54.496094 17.636719 54.496094 17.636719 54.492188 17.636719 C 54.417969 17.425781 54.339844 17.210938 54.269531 16.996094 C 56.050781 17.511719 58.160156 17.386719 59.917969 16.773438 C 59.945312 16.761719 59.925781 16.726562 59.902344 16.730469 C 57.96875 16.992188 56 17.1875 54.148438 16.601562 C 53.976562 16.039062 53.835938 15.476562 53.726562 14.910156 C 54.199219 15.324219 55.140625 15.554688 55.699219 15.695312 C 56.515625 15.902344 57.414062 15.980469 58.25 15.753906 C 58.296875 15.738281 58.285156 15.679688 58.238281 15.6875 C 57.328125 15.871094 56.4375 15.6875 55.59375 15.410156 C 55.164062 15.273438 54.742188 15.097656 54.335938 14.902344 C 54.109375 14.792969 53.929688 14.65625 53.675781 14.609375 C 53.640625 14.40625 53.613281 14.210938 53.585938 14.007812 C 53.710938 14.03125 53.828125 14.054688 53.949219 14.074219 C 55.410156 14.335938 56.847656 14.804688 58.222656 15.285156 C 59.875 15.855469 61.5 16.539062 62.953125 17.433594 C 63.070312 17.503906 63.207031 17.464844 63.289062 17.371094 C 65.894531 14.589844 68.960938 12.207031 72.136719 9.953125 C 72.179688 10.234375 72.226562 10.523438 72.269531 10.8125 C 71.578125 11.429688 70.582031 11.828125 69.703125 12.109375 C 69.695312 12.113281 69.695312 12.121094 69.707031 12.121094 C 70.636719 11.855469 71.578125 11.59375 72.300781 11.015625 C 72.316406 11.113281 72.332031 11.210938 72.34375 11.304688 C 72.351562 11.546875 72.371094 11.785156 72.386719 12.023438 C 72.332031 12.023438 72.269531 12.039062 72.226562 12.082031 C 71.496094 12.835938 70.761719 13.234375 69.695312 13.511719 C 69.027344 13.6875 68.335938 13.808594 67.679688 14.039062 C 67.652344 14.046875 67.667969 14.089844 67.695312 14.078125 C 69.234375 13.769531 71.457031 13.796875 72.421875 12.417969 C 72.4375 12.566406 72.453125 12.722656 72.46875 12.871094 C 72.480469 12.972656 72.496094 13.082031 72.507812 13.191406 C 72.320312 13.363281 72.132812 13.535156 71.898438 13.667969 C 71.398438 13.964844 70.84375 14.171875 70.289062 14.355469 C 69.125 14.738281 67.925781 15.007812 66.726562 15.253906 C 66.679688 15.261719 66.691406 15.328125 66.734375 15.320312 C 67.96875 15.140625 69.21875 14.960938 70.410156 14.589844 C 70.976562 14.421875 71.929688 14.101562 72.570312 13.636719 C 72.621094 13.996094 72.683594 14.351562 72.753906 14.707031 C 71.789062 15.203125 70.878906 15.609375 69.785156 15.890625 C 68.660156 16.179688 67.515625 16.402344 66.382812 16.652344 C 66.351562 16.65625 66.359375 16.699219 66.390625 16.695312 C 67.621094 16.535156 68.847656 16.402344 70.0625 16.113281 C 70.980469 15.894531 72.019531 15.605469 72.828125 15.09375 C 72.863281 15.265625 72.90625 15.441406 72.941406 15.621094 C 72.910156 15.628906 72.882812 15.648438 72.859375 15.671875 C 71.582031 17.054688 69.09375 17.734375 67.195312 17.835938 C 67.164062 17.835938 67.160156 17.875 67.191406 17.878906 C 68.257812 18.042969 69.351562 17.773438 70.375 17.457031 C 71.34375 17.160156 72.3125 16.714844 73.023438 16.027344 C 73.042969 16.101562 73.054688 16.175781 73.074219 16.253906 C 72.6875 16.492188 72.351562 16.867188 72.027344 17.136719 C 71.558594 17.527344 71.050781 17.878906 70.515625 18.191406 C 69.421875 18.824219 68.136719 19.195312 66.890625 19.476562 C 66.867188 19.484375 66.863281 19.523438 66.894531 19.523438 C 67.28125 19.5 67.660156 19.457031 68.027344 19.394531 C 67.535156 19.632812 67.050781 19.898438 66.539062 20.082031 C 65.554688 20.429688 64.53125 20.660156 63.5 20.859375 C 61.675781 21.203125 59.808594 21.410156 57.957031 21.566406 C 57.914062 21.558594 57.867188 21.554688 57.828125 21.539062 C 57.414062 21.445312 57.023438 21.289062 56.671875 21.085938 C 56.503906 20.984375 56.347656 20.867188 56.207031 20.734375 Z M 55.304688 19.625 C 55.28125 19.574219 55.253906 19.515625 55.226562 19.460938 C 55.289062 19.5 55.351562 19.535156 55.417969 19.570312 C 55.371094 19.566406 55.320312 19.585938 55.304688 19.625 Z M 46.96875 11.875 C 48.253906 11.152344 49.550781 10.441406 50.847656 9.71875 C 50.472656 10.34375 50.164062 11 50.105469 11.710938 C 50.101562 11.75 50.175781 11.761719 50.179688 11.714844 C 50.21875 11 50.523438 10.332031 50.890625 9.695312 C 51.417969 9.40625 51.941406 9.113281 52.460938 8.816406 C 51.800781 9.96875 51.171875 11.152344 51.101562 12.457031 C 51.097656 12.527344 51.222656 12.539062 51.222656 12.464844 C 51.285156 11.136719 51.921875 9.925781 52.59375 8.742188 C 53.996094 7.945312 55.386719 7.132812 56.746094 6.273438 C 56.105469 8.3125 55.148438 10.273438 54.554688 12.328125 C 54.503906 12.488281 54.777344 12.582031 54.828125 12.414062 C 55.457031 10.328125 56.355469 8.289062 56.890625 6.183594 C 58.460938 5.175781 59.984375 4.117188 61.414062 2.953125 C 61.65625 3.011719 61.894531 3.070312 62.136719 3.128906 C 61.230469 4.722656 60.761719 6.488281 60.347656 8.21875 C 60.109375 9.226562 59.9375 10.25 59.746094 11.265625 C 59.652344 11.753906 59.5625 12.242188 59.46875 12.726562 C 59.394531 13.109375 59.199219 13.5625 59.292969 13.949219 C 59.308594 14.027344 59.433594 14.058594 59.488281 13.984375 C 59.683594 13.722656 59.695312 13.40625 59.753906 13.101562 C 59.847656 12.621094 59.9375 12.140625 60.019531 11.664062 C 60.203125 10.644531 60.378906 9.632812 60.578125 8.621094 C 60.945312 6.761719 61.296875 4.875 62.1875 3.140625 C 67.074219 4.335938 72.011719 5.925781 77.144531 5.921875 C 75.691406 6.925781 74.226562 7.921875 72.777344 8.9375 C 72.769531 8.851562 72.617188 8.8125 72.585938 8.910156 C 72.570312 8.976562 72.550781 9.042969 72.535156 9.109375 C 69.140625 11.496094 65.84375 14.007812 63.054688 16.964844 C 60.5625 15.476562 57.597656 14.453125 54.695312 13.792969 C 52.222656 13.226562 48.9375 13.523438 46.96875 11.875 Z M 77.832031 5.445312 C 77.800781 5.433594 77.773438 5.429688 77.730469 5.429688 C 72.132812 5.570312 66.953125 3.574219 61.519531 2.808594 C 61.589844 2.582031 61.285156 2.332031 61.035156 2.535156 C 59.773438 3.542969 58.445312 4.46875 57.085938 5.351562 C 57.121094 5.164062 57.160156 4.972656 57.191406 4.78125 C 57.195312 4.753906 57.148438 4.75 57.144531 4.78125 C 57.097656 4.988281 57.046875 5.203125 56.988281 5.414062 C 53.570312 7.628906 49.945312 9.574219 46.5625 11.847656 C 46.449219 11.925781 46.570312 12.097656 46.691406 12.03125 C 46.761719 11.992188 46.832031 11.953125 46.902344 11.910156 C 47.691406 12.65625 48.785156 13.019531 49.867188 13.292969 C 51.027344 13.585938 52.222656 13.773438 53.40625 13.980469 C 53.445312 16.457031 54.355469 18.820312 55.40625 21.050781 C 55.464844 21.1875 55.613281 21.203125 55.730469 21.15625 C 55.871094 21.273438 56.027344 21.378906 56.136719 21.457031 C 56.824219 21.9375 57.710938 22.148438 58.570312 22.25 C 61.378906 22.582031 64.425781 21.738281 67.050781 20.800781 C 67.246094 20.730469 67.449219 20.65625 67.648438 20.578125 C 68.222656 20.425781 68.789062 20.261719 69.347656 20.070312 C 70.703125 19.617188 72.039062 18.878906 73.066406 17.917969 C 73.121094 17.871094 73.167969 17.824219 73.21875 17.773438 C 73.300781 17.691406 73.386719 17.605469 73.464844 17.515625 C 73.660156 17.574219 73.929688 17.445312 73.882812 17.210938 C 73.632812 15.835938 73.324219 14.464844 73.09375 13.085938 C 73.132812 13.019531 73.164062 12.953125 73.1875 12.878906 C 73.214844 12.789062 73.128906 12.726562 73.042969 12.753906 C 72.875 11.679688 72.757812 10.601562 72.761719 9.511719 C 74.554688 8.253906 76.371094 7.03125 78.152344 5.796875 C 78.421875 5.613281 78.097656 5.269531 77.832031 5.445312 Z M 77.832031 5.445312 " fill-opacity="1" fill-rule="evenodd"/></g><path fill="#ffffff" d="M 54.804688 7.894531 C 54.863281 7.84375 54.789062 7.761719 54.726562 7.8125 C 53.433594 8.851562 53.171875 10.726562 52.796875 12.152344 C 52.773438 12.230469 52.90625 12.265625 52.953125 12.199219 C 53.898438 10.867188 53.464844 9.085938 54.804688 7.894531 Z M 54.804688 7.894531 " fill-opacity="1" fill-rule="evenodd"/><path fill="#ffffff" d="M 57.324219 13.042969 C 58.28125 10.164062 58.175781 6.894531 60.050781 4.289062 C 60.070312 4.265625 60.027344 4.242188 60.011719 4.265625 C 57.949219 6.828125 57.984375 10.042969 57.007812 12.945312 C 56.941406 13.136719 57.261719 13.234375 57.324219 13.042969 Z M 57.324219 13.042969 " fill-opacity="1" fill-rule="evenodd"/><path fill="#ffffff" d="M 61.140625 14.742188 C 61.996094 13.246094 62.34375 11.4375 62.75 9.8125 C 63.21875 7.945312 63.625 6.074219 64.234375 4.238281 C 64.265625 4.140625 64.105469 4.09375 64.070312 4.191406 C 63.5 5.828125 63.085938 7.496094 62.65625 9.164062 C 62.402344 10.128906 62.136719 11.089844 61.839844 12.046875 C 61.558594 12.929688 61.167969 13.78125 60.890625 14.664062 C 60.839844 14.816406 61.0625 14.882812 61.140625 14.742188 Z M 61.140625 14.742188 " fill-opacity="1" fill-rule="evenodd"/><path fill="#ffffff" d="M 64.140625 13.171875 C 65.011719 10.445312 65.875 7.71875 66.695312 4.980469 C 66.714844 4.929688 66.625 4.898438 66.605469 4.953125 C 65.679688 7.664062 64.6875 10.347656 63.820312 13.070312 C 63.757812 13.261719 64.078125 13.367188 64.140625 13.171875 Z M 64.140625 13.171875 " fill-opacity="1" fill-rule="evenodd"/><path fill="#ffffff" d="M 66.445312 12.660156 C 66.421875 12.761719 66.585938 12.804688 66.644531 12.726562 C 67.339844 11.820312 67.558594 10.511719 67.8125 9.460938 C 68.148438 8.109375 68.410156 6.738281 68.828125 5.394531 C 68.839844 5.355469 68.773438 5.335938 68.757812 5.375 C 68.324219 6.574219 68.019531 7.800781 67.675781 9.019531 C 67.496094 9.675781 67.289062 10.328125 67.074219 10.976562 C 66.890625 11.542969 66.589844 12.085938 66.445312 12.660156 Z M 66.445312 12.660156 " fill-opacity="1" fill-rule="evenodd"/><path fill="#ffffff" d="M 70.394531 8.890625 C 70.652344 8.53125 70.710938 8.035156 70.839844 7.628906 C 70.980469 7.167969 71.15625 6.71875 71.390625 6.292969 C 71.433594 6.210938 71.292969 6.148438 71.246094 6.226562 C 71.007812 6.601562 70.820312 6.988281 70.652344 7.394531 C 70.472656 7.828125 70.1875 8.363281 70.171875 8.820312 C 70.171875 8.925781 70.324219 8.996094 70.394531 8.890625 Z M 70.394531 8.890625 " fill-opacity="1" fill-rule="evenodd"/><path fill="#ffffff" d="M 72.820312 7.941406 C 73.472656 7.667969 73.566406 6.691406 73.425781 6.160156 C 73.402344 6.089844 73.296875 6.113281 73.300781 6.183594 C 73.320312 6.492188 73.292969 6.785156 73.171875 7.082031 C 73.0625 7.363281 72.792969 7.558594 72.6875 7.832031 C 72.660156 7.90625 72.742188 7.976562 72.820312 7.941406 Z M 72.820312 7.941406 " fill-opacity="1" fill-rule="evenodd"/><path fill="#ffffff" d="M 68.660156 16.988281 C 67.714844 17.066406 66.761719 17.347656 65.839844 17.542969 C 64.925781 17.738281 64.019531 17.941406 63.105469 18.128906 C 61.25 18.511719 59.386719 18.808594 57.5 18.976562 C 57.421875 18.980469 57.445312 19.089844 57.519531 19.085938 C 59.40625 18.953125 61.28125 18.691406 63.144531 18.351562 C 64.0625 18.183594 64.976562 17.996094 65.882812 17.800781 C 66.820312 17.59375 67.808594 17.453125 68.707031 17.136719 C 68.808594 17.101562 68.75 16.984375 68.660156 16.988281 Z M 68.660156 16.988281 " fill-opacity="1" fill-rule="evenodd"/><g clip-path="url(#60d4524811)"><path fill="#ffffff" d="M 46.378906 13.492188 C 46.398438 13.410156 46.453125 13.300781 46.5625 13.304688 C 46.589844 13.304688 46.609375 13.304688 46.632812 13.316406 C 46.894531 13.378906 46.945312 13.777344 46.941406 14.039062 C 46.707031 14.09375 46.464844 14.105469 46.257812 13.980469 C 46.300781 13.816406 46.332031 13.65625 46.378906 13.492188 Z M 46.589844 14.542969 C 46.941406 14.65625 47.351562 14.660156 47.707031 14.589844 C 47.789062 14.574219 47.886719 14.5 47.886719 14.414062 C 47.871094 13.816406 47.597656 13.359375 47.167969 13.097656 C 47.035156 12.960938 46.859375 12.859375 46.621094 12.832031 C 46.582031 12.824219 46.535156 12.824219 46.496094 12.832031 C 46.507812 12.820312 46.523438 12.8125 46.535156 12.804688 C 46.605469 12.753906 46.53125 12.652344 46.460938 12.695312 C 46.367188 12.742188 46.285156 12.804688 46.203125 12.863281 C 46.023438 12.871094 45.835938 12.890625 45.640625 12.945312 C 45.5 12.984375 45.433594 13.074219 45.4375 13.203125 C 45.449219 13.601562 45.542969 14.054688 45.902344 14.320312 C 46.105469 14.472656 46.34375 14.535156 46.589844 14.542969 Z M 46.589844 14.542969 " fill-opacity="1" fill-rule="evenodd"/></g><path fill="#ffffff" d="M 46.433594 17.214844 C 46.4375 16.34375 46.515625 15.472656 46.574219 14.601562 C 46.582031 14.546875 46.488281 14.542969 46.480469 14.597656 C 46.3125 15.585938 46.109375 16.566406 46.109375 17.566406 C 46.109375 18.214844 46.121094 19.539062 46.8125 19.921875 C 46.894531 19.96875 46.996094 19.90625 46.984375 19.820312 C 46.941406 19.464844 46.6875 19.132812 46.589844 18.785156 C 46.453125 18.277344 46.433594 17.734375 46.433594 17.214844 Z M 46.433594 17.214844 " fill-opacity="1" fill-rule="evenodd"/><path fill="#ffffff" d="M 47.097656 17.25 C 46.839844 16.464844 46.769531 15.628906 46.871094 14.808594 C 46.871094 14.796875 46.847656 14.792969 46.847656 14.808594 C 46.691406 15.644531 46.734375 16.460938 46.914062 17.28125 C 47.074219 18 47.34375 18.898438 47.898438 19.4375 C 47.980469 19.511719 48.097656 19.433594 48.0625 19.34375 C 47.792969 18.621094 47.335938 17.992188 47.097656 17.25 Z M 47.097656 17.25 " fill-opacity="1" fill-rule="evenodd"/><path fill="#ffffff" d="M 47.230469 14.984375 C 47.195312 14.941406 47.121094 14.996094 47.152344 15.042969 C 47.714844 15.808594 48.070312 16.640625 48.304688 17.539062 C 48.476562 18.210938 48.460938 19.050781 48.804688 19.660156 C 48.851562 19.75 49 19.722656 49.011719 19.621094 C 49.128906 18.875 48.761719 17.957031 48.523438 17.253906 C 48.242188 16.425781 47.808594 15.664062 47.230469 14.984375 Z M 47.230469 14.984375 " fill-opacity="1" fill-rule="evenodd"/><path fill="#ffffff" d="M 47.78125 14.894531 C 47.757812 14.878906 47.726562 14.910156 47.746094 14.925781 C 48.300781 15.488281 48.613281 16.164062 48.933594 16.847656 C 49.273438 17.585938 49.289062 18.394531 49.582031 19.128906 C 49.625 19.238281 49.796875 19.183594 49.8125 19.089844 C 49.964844 18.339844 49.523438 17.398438 49.222656 16.722656 C 48.917969 16.027344 48.402344 15.382812 47.78125 14.894531 Z M 47.78125 14.894531 " fill-opacity="1" fill-rule="evenodd"/></svg>